<?xml version="1.0" encoding="UTF-8" standalone="no"?>
<svg
   xmlns:dc="http://purl.org/dc/elements/1.1/"
   xmlns:cc="http://creativecommons.org/ns#"
   xmlns:rdf="http://www.w3.org/1999/02/22-rdf-syntax-ns#"
   xmlns:svg="http://www.w3.org/2000/svg"
   xmlns="http://www.w3.org/2000/svg"
   xmlns:sodipodi="http://sodipodi.sourceforge.net/DTD/sodipodi-0.dtd"
   xmlns:inkscape="http://www.inkscape.org/namespaces/inkscape"
   id="svg8"
   version="1.1"
   viewBox="0 0 392.90624 114.56459"
   height="433"
   width="1485"
   sodipodi:docname="LogoDelta2.svg"
   inkscape:version="0.92.1 r15371">
  <sodipodi:namedview
     pagecolor="#ffffff"
     bordercolor="#666666"
     borderopacity="1"
     objecttolerance="10"
     gridtolerance="10"
     guidetolerance="10"
     inkscape:pageopacity="0"
     inkscape:pageshadow="2"
     inkscape:window-width="1920"
     inkscape:window-height="1018"
     id="namedview29"
     showgrid="false"
     showborder="true"
     inkscape:zoom="0.2973261"
     inkscape:cx="-63.854567"
     inkscape:cy="573.39685"
     inkscape:window-x="-8"
     inkscape:window-y="-8"
     inkscape:window-maximized="1"
     inkscape:current-layer="svg8"
     units="px"
     inkscape:showpageshadow="false" />
  <defs
     id="defs2" />
  <metadata
     id="metadata5">
    <rdf:RDF>
      <cc:Work
         rdf:about="">
        <dc:format>image/svg+xml</dc:format>
        <dc:type
           rdf:resource="http://purl.org/dc/dcmitype/StillImage" />
        <dc:title></dc:title>
      </cc:Work>
    </rdf:RDF>
  </metadata>
  <g
     id="layer1"
     transform="translate(-13.546871,-91.217712)">
    <g
       id="g4549">
      <path
         style="opacity:1;fill:#f56e13;fill-opacity:1;stroke:none;stroke-width:4.4178319;stroke-linecap:round;stroke-linejoin:round;stroke-miterlimit:4;stroke-dasharray:none;stroke-opacity:1;paint-order:markers stroke fill"
         d="m 197.43213,167.14588 v 37.2887 h 5.01788 v -13.90321 l 3.96693,3.91089 10.26558,9.99232 h 7.29351 l -10.48837,-10.20951 c 1.83751,-0.42051 3.6374,-1.12657 5.35839,-2.32328 3.45727,-2.4474 5.21826,-6.18206 5.21826,-10.92275 0,-5.59599 -2.45957,-9.75538 -7.18842,-12.07739 -2.36885,-1.15915 -4.75999,-1.75157 -7.14778,-1.75157 h -9.00305 z m 5.01788,4.99266 h 7.2823 c 1.66123,0 3.27037,0.38876 4.85814,1.18266 2.98253,1.49129 4.38872,3.90944 4.38872,7.65363 0,3.74441 -1.40619,6.15949 -4.38872,7.65084 -1.60542,0.79479 -3.21465,1.18265 -4.85814,1.18265 h -7.2823 z"
         id="path4557"
         inkscape:connector-curvature="0" />
      <path
         style="opacity:1;fill:#f56e13;fill-opacity:1;stroke:none;stroke-width:4.4178319;stroke-linecap:round;stroke-linejoin:round;stroke-miterlimit:4;stroke-dasharray:none;stroke-opacity:1;paint-order:markers stroke fill"
         d="m 198.93139,168.64546 v 34.29181 0 z"
         id="path4555"
         inkscape:connector-curvature="0" />
      <path
         id="path6286"
         d="M 61.505766,91.266359 13.590339,204.56225 H 109.41691 L 104.73725,193.498 H 30.2839 l 37.229577,-88.02615 z"
         style="opacity:1;fill:#1aa7fa;fill-opacity:1;stroke:none;stroke-width:1.1545167px;stroke-linecap:butt;stroke-linejoin:miter;stroke-opacity:1"
         inkscape:connector-curvature="0" />
      <path
         style="opacity:1;fill:#f56e13;fill-opacity:1;stroke:none;stroke-width:1.1545167px;stroke-linecap:butt;stroke-linejoin:miter;stroke-opacity:1"
         d="m 69.951981,111.2472 -5.858764,13.85044 -0.148866,0.35354 v 0 l 22.197188,52.48559 H 41.745644 l -4.679576,11.06425 h 65.769082 z"
         id="path6288"
         inkscape:connector-curvature="0" />
      <path
         style="color:#000000;font-style:normal;font-variant:normal;font-weight:normal;font-stretch:normal;font-size:66.29199982px;line-height:1.25;font-family:'Vonique 92';-inkscape-font-specification:'Vonique 92, Normal';font-variant-ligatures:normal;font-variant-position:normal;font-variant-caps:normal;font-variant-numeric:normal;font-variant-alternates:normal;font-feature-settings:normal;text-indent:0;text-align:start;text-decoration:none;text-decoration-line:none;text-decoration-style:solid;text-decoration-color:#000000;letter-spacing:0px;word-spacing:0px;text-transform:none;writing-mode:lr-tb;direction:ltr;text-orientation:mixed;dominant-baseline:auto;baseline-shift:baseline;text-anchor:start;white-space:normal;shape-padding:0;clip-rule:nonzero;display:inline;overflow:visible;visibility:visible;opacity:1;isolation:auto;mix-blend-mode:normal;color-interpolation:sRGB;color-interpolation-filters:linearRGB;solid-color:#000000;solid-opacity:1;vector-effect:none;fill:#1aa7fa;fill-opacity:1;fill-rule:nonzero;stroke:none;stroke-width:1.53573287;stroke-linecap:butt;stroke-linejoin:miter;stroke-miterlimit:4;stroke-dasharray:none;stroke-dashoffset:0;stroke-opacity:1;color-rendering:auto;image-rendering:auto;shape-rendering:auto;text-rendering:auto;enable-background:accumulate"
         d="m 250.86694,114.79795 v 38.1969 h 29.64678 v -5.13967 h -0.76786 -23.73933 v -33.05723 z"
         id="path6292"
         inkscape:connector-curvature="0" />
      <path
         style="color:#000000;font-style:normal;font-variant:normal;font-weight:normal;font-stretch:normal;font-size:66.29199982px;line-height:1.25;font-family:'Vonique 92';-inkscape-font-specification:'Vonique 92, Normal';font-variant-ligatures:normal;font-variant-position:normal;font-variant-caps:normal;font-variant-numeric:normal;font-variant-alternates:normal;font-feature-settings:normal;text-indent:0;text-align:start;text-decoration:none;text-decoration-line:none;text-decoration-style:solid;text-decoration-color:#000000;letter-spacing:0px;word-spacing:0px;text-transform:none;writing-mode:lr-tb;direction:ltr;text-orientation:mixed;dominant-baseline:auto;baseline-shift:baseline;text-anchor:start;white-space:normal;shape-padding:0;clip-rule:nonzero;display:inline;overflow:visible;visibility:visible;opacity:1;isolation:auto;mix-blend-mode:normal;color-interpolation:sRGB;color-interpolation-filters:linearRGB;solid-color:#000000;solid-opacity:1;vector-effect:none;fill:#1aa7fa;fill-opacity:1;fill-rule:nonzero;stroke:none;stroke-width:1.53573287;stroke-linecap:butt;stroke-linejoin:miter;stroke-miterlimit:4;stroke-dasharray:none;stroke-dashoffset:0;stroke-opacity:1;color-rendering:auto;image-rendering:auto;shape-rendering:auto;text-rendering:auto;enable-background:accumulate"
         d="m 225.38672,113.35373 -3.06095,5.72299 v 0.0288 l -17.82741,33.94061 h 5.65846 l 15.21935,-28.55952 15.07545,28.55952 h 5.75903 l -0.58944,-1.12472 -17.42398,-33.20734 z"
         id="path6294"
         inkscape:connector-curvature="0" />
      <path
         style="opacity:1;fill:#1aa7fa;fill-opacity:1;stroke:none;stroke-width:4.52541399;stroke-linecap:round;stroke-linejoin:round;stroke-miterlimit:4;stroke-dasharray:none;stroke-opacity:1;paint-order:markers stroke fill"
         d="m 186.84078,114.30148 c -5.36794,0 -10.03339,1.93643 -13.83956,5.7426 -3.80566,3.80566 -5.74247,8.46357 -5.74247,13.81562 0,5.36718 1.93586,10.03371 5.74095,13.83951 3.78952,3.80601 8.44838,5.74254 13.81561,5.74254 4.43085,0 8.44722,-1.36428 11.95143,-4.06131 3.45785,-2.66643 5.81658,-6.23483 7.03229,-10.61819 l 0.27007,-0.97327 h -1.00939 -4.05531 l -0.1768,0.52187 c -1.04811,3.0969 -2.81573,5.53332 -5.34358,7.38175 -2.57832,1.89812 -5.43053,2.83302 -8.643,2.83302 -4.09409,0 -7.50521,-1.4036 -10.3917,-4.27279 -2.86913,-2.8864 -4.27129,-6.29769 -4.27129,-10.39169 0,-4.07687 1.40159,-7.48068 4.27129,-10.36773 v 0 c 0,0 0,0 0,0 2.88649,-2.86913 6.29761,-4.27129 10.3917,-4.27129 3.29363,0 6.1898,0.96611 8.78248,2.92607 2.56169,1.94491 4.30486,4.46501 5.27303,7.6396 l 0.16487,0.54446 h 5.11112 l -0.24296,-0.95828 c -1.14645,-4.50044 -3.4958,-8.15724 -7.00373,-10.87617 h -0.008 c -3.52075,-2.78073 -7.58255,-4.18878 -12.08039,-4.18878 z m 9.54592,32.6269 c -0.70569,0.5193 -1.43654,0.97536 -2.18971,1.36624 0.75317,-0.39088 1.48402,-0.84694 2.18971,-1.36624 z"
         id="path6296"
         inkscape:connector-curvature="0" />
      <path
         style="opacity:1;fill:#1aa7fa;fill-opacity:1;stroke:none;stroke-width:4.52541399;stroke-linecap:round;stroke-linejoin:round;stroke-miterlimit:4;stroke-dasharray:none;stroke-opacity:1;paint-order:markers stroke fill"
         d="m 143.60514,114.25205 c -5.36788,0 -10.03482,1.93629 -13.84108,5.74246 -3.80593,3.8058 -5.74948,8.47076 -5.76643,13.83815 0,5.36794 1.93632,10.03491 5.74249,13.84108 3.80615,3.80615 8.47154,5.74247 13.83956,5.74247 5.36797,0 10.03491,-1.93632 13.84108,-5.74247 3.80539,-3.80546 5.74184,-8.4714 5.74246,-13.83807 0.0163,-5.36796 -1.91074,-10.03498 -5.717,-13.84116 -3.80601,-3.80617 -8.47295,-5.74246 -13.84108,-5.74246 z m -0.92836,1.55821 c -0.61304,0.0279 -1.21412,0.0816 -1.80264,0.16351 0.58852,-0.0819 1.1896,-0.13612 1.80264,-0.16351 z m 0.90442,3.55584 c 4.02771,0 7.38899,1.38717 10.24318,4.22479 2.83771,2.85427 4.22479,6.21564 4.22479,10.24327 0,4.02771 -1.38708,7.39043 -4.22479,10.24478 -2.85419,2.83754 -6.21547,4.22471 -10.24318,4.22471 -4.02692,0 -7.38929,-1.38674 -10.24327,-4.2233 -2.83653,-2.85389 -4.22321,-6.21618 -4.22321,-10.24318 0,-4.02698 1.38668,-7.38783 4.22321,-10.24183 v 0 c 2.85428,-2.83762 6.21705,-4.22471 10.24476,-4.22471 z"
         id="path6298"
         inkscape:connector-curvature="0" />
      <path
         style="color:#000000;font-style:normal;font-variant:normal;font-weight:normal;font-stretch:normal;font-size:66.29199982px;line-height:1.25;font-family:'Vonique 92';-inkscape-font-specification:'Vonique 92, Normal';font-variant-ligatures:normal;font-variant-position:normal;font-variant-caps:normal;font-variant-numeric:normal;font-variant-alternates:normal;font-feature-settings:normal;text-indent:0;text-align:start;text-decoration:none;text-decoration-line:none;text-decoration-style:solid;text-decoration-color:#000000;letter-spacing:0px;word-spacing:0px;text-transform:none;writing-mode:lr-tb;direction:ltr;text-orientation:mixed;dominant-baseline:auto;baseline-shift:baseline;text-anchor:start;white-space:normal;shape-padding:0;clip-rule:nonzero;display:inline;overflow:visible;visibility:visible;opacity:1;isolation:auto;mix-blend-mode:normal;color-interpolation:sRGB;color-interpolation-filters:linearRGB;solid-color:#000000;solid-opacity:1;vector-effect:none;fill:#1aa7fa;fill-opacity:1;fill-rule:nonzero;stroke:none;stroke-width:1.53573287;stroke-linecap:butt;stroke-linejoin:miter;stroke-miterlimit:4;stroke-dasharray:none;stroke-dashoffset:0;stroke-opacity:1;color-rendering:auto;image-rendering:auto;shape-rendering:auto;text-rendering:auto;enable-background:accumulate"
         d="m 95.630467,114.79795 v 38.1969 H 125.2772 v -5.13967 h -0.76781 -23.73941 v -33.05723 z"
         id="path6300"
         inkscape:connector-curvature="0" />
      <path
         style="color:#000000;font-style:normal;font-variant:normal;font-weight:normal;font-stretch:normal;font-size:66.29199982px;line-height:1.25;font-family:'Vonique 92';-inkscape-font-specification:'Vonique 92, Normal';font-variant-ligatures:normal;font-variant-position:normal;font-variant-caps:normal;font-variant-numeric:normal;font-variant-alternates:normal;font-feature-settings:normal;text-indent:0;text-align:start;text-decoration:none;text-decoration-line:none;text-decoration-style:solid;text-decoration-color:#000000;letter-spacing:0px;word-spacing:0px;text-transform:none;writing-mode:lr-tb;direction:ltr;text-orientation:mixed;dominant-baseline:auto;baseline-shift:baseline;text-anchor:start;white-space:normal;shape-padding:0;clip-rule:nonzero;display:inline;overflow:visible;visibility:visible;opacity:1;isolation:auto;mix-blend-mode:normal;color-interpolation:sRGB;color-interpolation-filters:linearRGB;solid-color:#000000;solid-opacity:1;vector-effect:none;fill:#f56e13;fill-opacity:1;fill-rule:nonzero;stroke:none;stroke-width:1.49922395;stroke-linecap:butt;stroke-linejoin:miter;stroke-miterlimit:4;stroke-dasharray:none;stroke-dashoffset:0;stroke-opacity:1;color-rendering:auto;image-rendering:auto;shape-rendering:auto;text-rendering:auto;enable-background:accumulate"
         d="m 116.93229,163.78179 v 40.6532 h 4.82277 v -21.6553 l 13.56759,22.83541 13.68633,-23.0711 v 21.89099 h 4.87395 l -0.0537,-40.59178 -1.39536,2.41583 -16.96727,29.37973 z"
         id="path6304"
         inkscape:connector-curvature="0" />
      <path
         style="color:#000000;font-style:normal;font-variant:normal;font-weight:normal;font-stretch:normal;font-size:66.29199982px;line-height:1.25;font-family:'Vonique 92';-inkscape-font-specification:'Vonique 92, Normal';font-variant-ligatures:normal;font-variant-position:normal;font-variant-caps:normal;font-variant-numeric:normal;font-variant-alternates:normal;font-feature-settings:normal;text-indent:0;text-align:start;text-decoration:none;text-decoration-line:none;text-decoration-style:solid;text-decoration-color:#000000;letter-spacing:0px;word-spacing:0px;text-transform:none;writing-mode:lr-tb;direction:ltr;text-orientation:mixed;dominant-baseline:auto;baseline-shift:baseline;text-anchor:start;white-space:normal;shape-padding:0;clip-rule:nonzero;display:inline;overflow:visible;visibility:visible;opacity:1;isolation:auto;mix-blend-mode:normal;color-interpolation:sRGB;color-interpolation-filters:linearRGB;solid-color:#000000;solid-opacity:1;vector-effect:none;fill:#f56e13;fill-opacity:1;fill-rule:nonzero;stroke:none;stroke-width:1.49922395;stroke-linecap:butt;stroke-linejoin:miter;stroke-miterlimit:4;stroke-dasharray:none;stroke-dashoffset:0;stroke-opacity:1;color-rendering:auto;image-rendering:auto;shape-rendering:auto;text-rendering:auto;enable-background:accumulate"
         d="m 175.6333,165.7363 -2.98809,5.58693 v 0.0279 l -17.40367,33.13229 h 5.52551 l 14.85749,-27.87767 14.71565,27.87767 h 5.62342 l -0.57672,-1.09806 -17.00982,-32.41635 z"
         id="path6306"
         inkscape:connector-curvature="0" />
      <path
         style="opacity:1;fill:#f56e13;fill-opacity:1;stroke:none;stroke-width:4.4178319;stroke-linecap:round;stroke-linejoin:round;stroke-miterlimit:4;stroke-dasharray:none;stroke-opacity:1;paint-order:markers stroke fill"
         d="m 255.30738,167.09787 -23.55868,23.48392 13.97474,13.97474 h 7.07011 l -13.97474,-13.97325 23.58794,-23.48541 z m -29.77507,0.16975 v 37.28885 h 5.01733 v -0.74959 -36.53926 z"
         id="path6310"
         inkscape:connector-curvature="0" />
      <path
         style="color:#000000;font-style:normal;font-variant:normal;font-weight:normal;font-stretch:normal;font-size:66.29199982px;line-height:1.25;font-family:'Vonique 92';-inkscape-font-specification:'Vonique 92, Normal';font-variant-ligatures:normal;font-variant-position:normal;font-variant-caps:normal;font-variant-numeric:normal;font-variant-alternates:normal;font-feature-settings:normal;text-indent:0;text-align:start;text-decoration:none;text-decoration-line:none;text-decoration-style:solid;text-decoration-color:#000000;letter-spacing:0px;word-spacing:0px;text-transform:none;writing-mode:lr-tb;direction:ltr;text-orientation:mixed;dominant-baseline:auto;baseline-shift:baseline;text-anchor:start;white-space:normal;shape-padding:0;clip-rule:nonzero;display:inline;overflow:visible;visibility:visible;opacity:1;isolation:auto;mix-blend-mode:normal;color-interpolation:sRGB;color-interpolation-filters:linearRGB;solid-color:#000000;solid-opacity:1;vector-effect:none;fill:#f56e13;fill-opacity:1;fill-rule:nonzero;stroke:none;stroke-width:1.49922395;stroke-linecap:butt;stroke-linejoin:miter;stroke-miterlimit:4;stroke-dasharray:none;stroke-dashoffset:0;stroke-opacity:1;color-rendering:auto;image-rendering:auto;shape-rendering:auto;text-rendering:auto;enable-background:accumulate"
         d="m 295.06573,167.16962 v 5.01744 h 11.79329 v 32.2773 l 5.01735,-0.0336 V 172.1885 h 11.84156 v -0.74956 -4.26921 z"
         id="path6312"
         inkscape:connector-curvature="0" />
      <path
         style="color:#000000;font-style:normal;font-variant:normal;font-weight:normal;font-stretch:normal;font-size:66.29199982px;line-height:1.25;font-family:'Vonique 92';-inkscape-font-specification:'Vonique 92, Normal';font-variant-ligatures:normal;font-variant-position:normal;font-variant-caps:normal;font-variant-numeric:normal;font-variant-alternates:normal;font-feature-settings:normal;text-indent:0;text-align:start;text-decoration:none;text-decoration-line:none;text-decoration-style:solid;text-decoration-color:#000000;letter-spacing:0px;word-spacing:0px;text-transform:none;writing-mode:lr-tb;direction:ltr;text-orientation:mixed;dominant-baseline:auto;baseline-shift:baseline;text-anchor:start;white-space:normal;shape-padding:0;clip-rule:nonzero;display:inline;overflow:visible;visibility:visible;opacity:1;isolation:auto;mix-blend-mode:normal;color-interpolation:sRGB;color-interpolation-filters:linearRGB;solid-color:#000000;solid-opacity:1;vector-effect:none;fill:#f56e13;fill-opacity:1;fill-rule:nonzero;stroke:none;stroke-width:1.49922395;stroke-linecap:butt;stroke-linejoin:miter;stroke-miterlimit:4;stroke-dasharray:none;stroke-dashoffset:0;stroke-opacity:1;color-rendering:auto;image-rendering:auto;shape-rendering:auto;text-rendering:auto;enable-background:accumulate"
         d="m 325.54074,167.1463 v 37.28869 h 5.01749 v -0.74959 -36.5391 z"
         id="path6314"
         inkscape:connector-curvature="0" />
      <path
         style="color:#000000;font-style:normal;font-variant:normal;font-weight:normal;font-stretch:normal;font-size:66.29199982px;line-height:1.25;font-family:'Vonique 92';-inkscape-font-specification:'Vonique 92, Normal';font-variant-ligatures:normal;font-variant-position:normal;font-variant-caps:normal;font-variant-numeric:normal;font-variant-alternates:normal;font-feature-settings:normal;text-indent:0;text-align:start;text-decoration:none;text-decoration-line:none;text-decoration-style:solid;text-decoration-color:#000000;letter-spacing:0px;word-spacing:0px;text-transform:none;writing-mode:lr-tb;direction:ltr;text-orientation:mixed;dominant-baseline:auto;baseline-shift:baseline;text-anchor:start;white-space:normal;shape-padding:0;clip-rule:nonzero;display:inline;overflow:visible;visibility:visible;opacity:1;isolation:auto;mix-blend-mode:normal;color-interpolation:sRGB;color-interpolation-filters:linearRGB;solid-color:#000000;solid-opacity:1;vector-effect:none;fill:#f56e13;fill-opacity:1;fill-rule:nonzero;stroke:none;stroke-width:1.49922395;stroke-linecap:butt;stroke-linejoin:miter;stroke-miterlimit:4;stroke-dasharray:none;stroke-dashoffset:0;stroke-opacity:1;color-rendering:auto;image-rendering:auto;shape-rendering:auto;text-rendering:auto;enable-background:accumulate"
         d="m 332.53091,165.4142 v 39.02082 h 5.01736 v -26.96839 l 28.89806,28.26702 v -38.58732 h -0.74956 -4.26785 v 26.99613 z"
         id="path6316"
         inkscape:connector-curvature="0" />
      <g
         transform="matrix(0.78114816,0,0,0.78114816,-833.2609,-1024.3849)"
         id="g6322"
         style="fill:#f56e13;fill-opacity:1">
        <path
           id="path6318"
           d="m 1404.582,1525.3588 v 47.7358 h 37.2063 v -6.4549 h -30.6576 v -34.7959 h 30.6576 v -0.9597 -5.5253 z"
           style="color:#000000;font-style:normal;font-variant:normal;font-weight:normal;font-stretch:normal;font-size:66.29199982px;line-height:1.25;font-family:'Vonique 92';-inkscape-font-specification:'Vonique 92, Normal';font-variant-ligatures:normal;font-variant-position:normal;font-variant-caps:normal;font-variant-numeric:normal;font-variant-alternates:normal;font-feature-settings:normal;text-indent:0;text-align:start;text-decoration:none;text-decoration-line:none;text-decoration-style:solid;text-decoration-color:#000000;letter-spacing:0px;word-spacing:0px;text-transform:none;writing-mode:lr-tb;direction:ltr;text-orientation:mixed;dominant-baseline:auto;baseline-shift:baseline;text-anchor:start;white-space:normal;shape-padding:0;clip-rule:nonzero;display:inline;overflow:visible;visibility:visible;opacity:1;isolation:auto;mix-blend-mode:normal;color-interpolation:sRGB;color-interpolation-filters:linearRGB;solid-color:#000000;solid-opacity:1;vector-effect:none;fill:#f56e13;fill-opacity:1;fill-rule:nonzero;stroke:none;stroke-width:1.91925693;stroke-linecap:butt;stroke-linejoin:miter;stroke-miterlimit:4;stroke-dasharray:none;stroke-dashoffset:0;stroke-opacity:1;color-rendering:auto;image-rendering:auto;shape-rendering:auto;text-rendering:auto;enable-background:accumulate"
           inkscape:connector-curvature="0" />
        <rect
           y="1547.2306"
           x="1410.1703"
           height="6.4242682"
           width="31.504309"
           id="rect6320"
           style="opacity:1;fill:#f56e13;fill-opacity:1;stroke:none;stroke-width:2.06776571;stroke-linecap:round;stroke-linejoin:round;stroke-miterlimit:4;stroke-dasharray:none;stroke-opacity:1;paint-order:markers stroke fill" />
      </g>
      <g
         id="g5460"
         transform="matrix(0.71744077,0,0,0.71744077,-983.90367,-634.35671)"
         style="fill:#f56e13;fill-opacity:1">
        <path
           id="path5428"
           d="m 1911.5742,1116.4922 c -7.3043,0 -13.6549,2.6373 -18.834,7.8164 -5.1785,5.1785 -7.8144,11.5164 -7.8144,18.7988 0,7.3039 2.6361,13.6492 7.8144,18.8281 5.1569,5.1803 11.4947,7.8165 18.7989,7.8165 6.0292,0 11.4952,-1.8556 16.2636,-5.5254 4.7051,-3.6283 7.9123,-8.4849 9.5664,-14.4493 l 0.068,-0.248 h -6.9727 c -1.4404,4.0367 -3.7955,7.2353 -7.1328,9.6758 -3.5083,2.5828 -7.3865,3.8554 -11.7578,3.8554 -5.5709,0 -10.213,-1.9085 -14.1406,-5.8125 -3.9041,-3.9278 -5.8125,-8.5676 -5.8125,-14.1386 0,-5.5471 1.9077,-10.179 5.8125,-14.1074 3.9276,-3.904 8.5697,-5.8145 14.1406,-5.8145 4.4822,0 8.423,1.3147 11.9512,3.9824 3.4851,2.6464 5.8546,6.0773 7.1719,10.3965 l 0.2265,0.7383 h 6.9551 l -0.332,-1.3008 c -1.5599,-6.1232 -4.7587,-11.1012 -9.5313,-14.8008 -4.7922,-3.787 -10.3187,-5.7051 -16.4414,-5.7051 z"
           style="opacity:1;fill:#f56e13;fill-opacity:1;stroke:none;stroke-width:3.53156495;stroke-linecap:round;stroke-linejoin:round;stroke-miterlimit:4;stroke-dasharray:none;stroke-opacity:1;paint-order:markers stroke fill"
           inkscape:connector-curvature="0" />
        <path
           id="rect5432"
           d="m 1930.8848,1149.5293 v 16.9395 h 6.9941 v -16.9395 z"
           style="opacity:1;fill:#f56e13;fill-opacity:1;stroke:none;stroke-width:1.72188675;stroke-linecap:round;stroke-linejoin:round;stroke-miterlimit:4;stroke-dasharray:none;stroke-opacity:1;paint-order:markers stroke fill"
           inkscape:connector-curvature="0" />
        <rect
           y="1149.5292"
           x="1921.319"
           height="6.9947309"
           width="16.559774"
           id="rect5430"
           style="opacity:1;fill:#f56e13;fill-opacity:1;stroke:none;stroke-width:1.56428993;stroke-linecap:round;stroke-linejoin:round;stroke-miterlimit:4;stroke-dasharray:none;stroke-opacity:1;paint-order:markers stroke fill" />
      </g>
    </g>
  </g>
</svg>
