<?xml version="1.0" encoding="UTF-8" standalone="no"?>
<!-- Created with Inkscape (http://www.inkscape.org/) -->

<svg
   xmlns:dc="http://purl.org/dc/elements/1.1/"
   xmlns:cc="http://creativecommons.org/ns#"
   xmlns:rdf="http://www.w3.org/1999/02/22-rdf-syntax-ns#"
   xmlns:svg="http://www.w3.org/2000/svg"
   xmlns="http://www.w3.org/2000/svg"
   xmlns:sodipodi="http://sodipodi.sourceforge.net/DTD/sodipodi-0.dtd"
   xmlns:inkscape="http://www.inkscape.org/namespaces/inkscape"
   width="361mm"
   height="115mm"
   viewBox="0 0 361 115"
   version="1.1"
   id="svg8"
   inkscape:version="0.92.2 (5c3e80d, 2017-08-06)"
   sodipodi:docname="LogoNet.svg">
  <defs
     id="defs2" />
  <sodipodi:namedview
     id="base"
     pagecolor="#ffffff"
     bordercolor="#666666"
     borderopacity="1.0"
     inkscape:pageopacity="0.0"
     inkscape:pageshadow="2"
     inkscape:zoom="0.49497475"
     inkscape:cx="403.49298"
     inkscape:cy="107.75952"
     inkscape:document-units="mm"
     inkscape:current-layer="layer1"
     showgrid="false"
     showborder="true"
     inkscape:window-width="1920"
     inkscape:window-height="1018"
     inkscape:window-x="-8"
     inkscape:window-y="-8"
     inkscape:window-maximized="1"
     inkscape:showpageshadow="false" />
  <metadata
     id="metadata5">
    <rdf:RDF>
      <cc:Work
         rdf:about="">
        <dc:format>image/svg+xml</dc:format>
        <dc:type
           rdf:resource="http://purl.org/dc/dcmitype/StillImage" />
        <dc:title></dc:title>
      </cc:Work>
    </rdf:RDF>
  </metadata>
  <g
     inkscape:label="Livello 1"
     inkscape:groupmode="layer"
     id="layer1"
     transform="translate(0,-182)">
    <g
       transform="matrix(0.99999561,0,0,0.99999561,0.16629537,584.68663)"
       id="g8008"
       inkscape:export-filename="D:\andreaPerotti\stefano\LogoNet.png"
       inkscape:export-xdpi="96"
       inkscape:export-ydpi="96">
      <path
         inkscape:connector-curvature="0"
         style="opacity:1;fill:#1aa7fa;fill-opacity:1;stroke:none;stroke-width:1.14349151px;stroke-linecap:butt;stroke-linejoin:miter;stroke-opacity:1"
         d="M 47.501375,-402.1579 0.0435226,-289.94394 H 94.954983 l -4.634971,-10.95858 H 16.577665 l 36.874049,-87.18555 z"
         id="path7839" />
      <path
         inkscape:connector-curvature="0"
         id="path7842"
         d="m 55.866931,-382.36787 -5.802816,13.71818 -0.147445,0.35016 v 0 l 21.985214,51.98434 h -43.97193 l -4.634888,10.95864 h 65.141011 z"
         style="opacity:1;fill:#16a816;fill-opacity:1;stroke:none;stroke-width:1.14349151px;stroke-linecap:butt;stroke-linejoin:miter;stroke-opacity:1" />
      <path
         inkscape:connector-curvature="0"
         id="path7850"
         d="m 238.80535,-378.85103 v 37.83215 h 29.36366 v -5.0906 h -0.76052 -23.51263 v -32.74155 z"
         style="color:#000000;font-style:normal;font-variant:normal;font-weight:normal;font-stretch:normal;font-size:66.29199982px;line-height:1.25;font-family:'Vonique 92';-inkscape-font-specification:'Vonique 92, Normal';font-variant-ligatures:normal;font-variant-position:normal;font-variant-caps:normal;font-variant-numeric:normal;font-variant-alternates:normal;font-feature-settings:normal;text-indent:0;text-align:start;text-decoration:none;text-decoration-line:none;text-decoration-style:solid;text-decoration-color:#000000;letter-spacing:0px;word-spacing:0px;text-transform:none;writing-mode:lr-tb;direction:ltr;text-orientation:mixed;dominant-baseline:auto;baseline-shift:baseline;text-anchor:start;white-space:normal;shape-padding:0;clip-rule:nonzero;display:inline;overflow:visible;visibility:visible;opacity:1;isolation:auto;mix-blend-mode:normal;color-interpolation:sRGB;color-interpolation-filters:linearRGB;solid-color:#000000;solid-opacity:1;vector-effect:none;fill:#1aa7fa;fill-opacity:1;fill-rule:nonzero;stroke:none;stroke-width:1.52106714;stroke-linecap:butt;stroke-linejoin:miter;stroke-miterlimit:4;stroke-dasharray:none;stroke-dashoffset:0;stroke-opacity:1;color-rendering:auto;image-rendering:auto;shape-rendering:auto;text-rendering:auto;enable-background:accumulate" />
      <path
         inkscape:connector-curvature="0"
         id="path7852"
         d="m 213.56846,-380.28145 -3.03172,5.66833 v 0.0285 l -17.65716,33.6165 h 5.60442 l 15.07401,-28.28679 14.93149,28.28679 h 5.70403 l -0.58381,-1.11396 -17.25759,-32.89025 z"
         style="color:#000000;font-style:normal;font-variant:normal;font-weight:normal;font-stretch:normal;font-size:66.29199982px;line-height:1.25;font-family:'Vonique 92';-inkscape-font-specification:'Vonique 92, Normal';font-variant-ligatures:normal;font-variant-position:normal;font-variant-caps:normal;font-variant-numeric:normal;font-variant-alternates:normal;font-feature-settings:normal;text-indent:0;text-align:start;text-decoration:none;text-decoration-line:none;text-decoration-style:solid;text-decoration-color:#000000;letter-spacing:0px;word-spacing:0px;text-transform:none;writing-mode:lr-tb;direction:ltr;text-orientation:mixed;dominant-baseline:auto;baseline-shift:baseline;text-anchor:start;white-space:normal;shape-padding:0;clip-rule:nonzero;display:inline;overflow:visible;visibility:visible;opacity:1;isolation:auto;mix-blend-mode:normal;color-interpolation:sRGB;color-interpolation-filters:linearRGB;solid-color:#000000;solid-opacity:1;vector-effect:none;fill:#1aa7fa;fill-opacity:1;fill-rule:nonzero;stroke:none;stroke-width:1.52106714;stroke-linecap:butt;stroke-linejoin:miter;stroke-miterlimit:4;stroke-dasharray:none;stroke-dashoffset:0;stroke-opacity:1;color-rendering:auto;image-rendering:auto;shape-rendering:auto;text-rendering:auto;enable-background:accumulate" />
      <path
         inkscape:connector-curvature="0"
         id="path7854"
         d="m 175.39062,-379.34276 c -5.31668,0 -9.93757,1.91794 -13.7074,5.68777 -3.76931,3.76931 -5.68763,8.38274 -5.68763,13.68368 0,5.31593 1.91738,9.93788 5.68613,13.70734 3.75333,3.76965 8.3677,5.68773 13.68367,5.68773 4.38854,0 8.36655,-1.35129 11.8373,-4.02254 3.42483,-2.64098 5.76104,-6.17531 6.96513,-10.5168 l 0.2675,-0.96397 h -0.99976 -4.01658 l -0.17511,0.51688 c -1.0381,3.06733 -2.78884,5.48048 -5.29255,7.31129 -2.5537,1.87994 -5.37867,2.80591 -8.56046,2.80591 -4.05499,0 -7.43354,-1.39017 -10.29246,-4.23197 -2.84173,-2.85883 -4.23051,-6.23754 -4.23051,-10.29244 0,-4.03794 1.38821,-7.40925 4.23051,-10.26873 v 0 c 0,0 0,0 0,0 2.85892,-2.84173 6.23747,-4.2305 10.29246,-4.2305 3.26218,0 6.13069,0.95688 8.69861,2.89813 2.53723,1.92633 4.26375,4.42237 5.22267,7.56665 l 0.1633,0.53925 h 5.06231 l -0.24064,-0.94912 c -1.1355,-4.45747 -3.46242,-8.07935 -6.93685,-10.77231 h -0.008 c -3.48712,-2.75418 -7.51013,-4.14878 -11.96502,-4.14878 z m 9.45476,32.31531 c -0.69895,0.51434 -1.42282,0.96604 -2.1688,1.35322 0.74598,-0.38718 1.46985,-0.83888 2.1688,-1.35322 z"
         style="opacity:1;fill:#1aa7fa;fill-opacity:1;stroke:none;stroke-width:4.48219776;stroke-linecap:round;stroke-linejoin:round;stroke-miterlimit:4;stroke-dasharray:none;stroke-opacity:1;paint-order:markers stroke fill" />
      <path
         inkscape:connector-curvature="0"
         id="path7856"
         d="m 132.56787,-379.39172 c -5.31662,0 -9.93899,1.9178 -13.70891,5.68762 -3.76958,3.76946 -5.69457,8.38987 -5.71136,13.70601 0,5.31667 1.91783,9.93909 5.68765,13.70893 3.76981,3.76977 8.39064,5.6876 13.7074,5.6876 5.31671,0 9.93908,-1.91783 13.7089,-5.6876 3.76905,-3.76915 5.68701,-8.39053 5.68762,-13.70595 0.0162,-5.3167 -1.89249,-9.93915 -5.6624,-13.70899 -3.76966,-3.76982 -8.39204,-5.68762 -13.7089,-5.68762 z m -0.9195,1.54333 c -0.60718,0.0276 -1.20252,0.0808 -1.78542,0.16195 0.5829,-0.0811 1.17824,-0.13482 1.78542,-0.16195 z m 0.89579,3.52189 c 3.98924,0 7.31842,1.37392 10.14536,4.18444 2.81061,2.82702 4.18444,6.15629 4.18444,10.14545 0,3.98925 -1.37383,7.31986 -4.18444,10.14693 -2.82694,2.81048 -6.15612,4.18439 -10.14536,4.18439 -3.98847,0 -7.31873,-1.37348 -10.14545,-4.18295 -2.80945,-2.82666 -4.18288,-6.15684 -4.18288,-10.14539 0,-3.98852 1.37343,-7.31728 4.18288,-10.14402 v 0 c 2.82702,-2.81052 6.15767,-4.18436 10.14692,-4.18436 z"
         style="opacity:1;fill:#1aa7fa;fill-opacity:1;stroke:none;stroke-width:4.48219776;stroke-linecap:round;stroke-linejoin:round;stroke-miterlimit:4;stroke-dasharray:none;stroke-opacity:1;paint-order:markers stroke fill" />
      <path
         inkscape:connector-curvature="0"
         id="path7858"
         d="m 85.051336,-378.85103 v 37.83215 h 29.363614 v -5.0906 h -0.76047 -23.512711 v -32.74155 z"
         style="color:#000000;font-style:normal;font-variant:normal;font-weight:normal;font-stretch:normal;font-size:66.29199982px;line-height:1.25;font-family:'Vonique 92';-inkscape-font-specification:'Vonique 92, Normal';font-variant-ligatures:normal;font-variant-position:normal;font-variant-caps:normal;font-variant-numeric:normal;font-variant-alternates:normal;font-feature-settings:normal;text-indent:0;text-align:start;text-decoration:none;text-decoration-line:none;text-decoration-style:solid;text-decoration-color:#000000;letter-spacing:0px;word-spacing:0px;text-transform:none;writing-mode:lr-tb;direction:ltr;text-orientation:mixed;dominant-baseline:auto;baseline-shift:baseline;text-anchor:start;white-space:normal;shape-padding:0;clip-rule:nonzero;display:inline;overflow:visible;visibility:visible;opacity:1;isolation:auto;mix-blend-mode:normal;color-interpolation:sRGB;color-interpolation-filters:linearRGB;solid-color:#000000;solid-opacity:1;vector-effect:none;fill:#1aa7fa;fill-opacity:1;fill-rule:nonzero;stroke:none;stroke-width:1.52106714;stroke-linecap:butt;stroke-linejoin:miter;stroke-miterlimit:4;stroke-dasharray:none;stroke-dashoffset:0;stroke-opacity:1;color-rendering:auto;image-rendering:auto;shape-rendering:auto;text-rendering:auto;enable-background:accumulate" />
      <g
         id="g7988">
        <path
           style="opacity:1;fill:#16a816;fill-opacity:1;stroke:none;stroke-width:4.48219776;stroke-linecap:round;stroke-linejoin:round;stroke-miterlimit:4;stroke-dasharray:none;stroke-opacity:1;paint-order:markers stroke fill"
           d="m 275.33978,-327.00856 c -5.31662,0 -9.93899,1.9178 -13.70891,5.68762 -3.76958,3.76946 -5.69457,8.38987 -5.71136,13.70601 0,5.31667 1.91783,9.93909 5.68765,13.70892 3.76981,3.76977 8.39064,5.68761 13.7074,5.68761 5.31671,0 9.93908,-1.91784 13.7089,-5.68761 3.76905,-3.76914 5.68701,-8.39052 5.68762,-13.70594 0.0162,-5.3167 -1.89249,-9.93915 -5.6624,-13.70899 -3.76966,-3.76982 -8.39204,-5.68762 -13.7089,-5.68762 z m -0.9195,1.54333 c -0.60718,0.0276 -1.20252,0.0808 -1.78542,0.16195 0.5829,-0.0811 1.17824,-0.13482 1.78542,-0.16195 z m 0.89579,3.52188 c 3.98924,0 7.31842,1.37393 10.14536,4.18445 2.81061,2.82701 4.18444,6.15629 4.18444,10.14545 0,3.98925 -1.37383,7.31986 -4.18444,10.14693 -2.82694,2.81047 -6.15612,4.18439 -10.14536,4.18439 -3.98847,0 -7.31873,-1.37348 -10.14545,-4.18296 -2.80945,-2.82665 -4.18288,-6.15683 -4.18288,-10.14538 0,-3.98852 1.37343,-7.31728 4.18288,-10.14402 v 0 c 2.82702,-2.81052 6.15767,-4.18437 10.14692,-4.18437 z"
           id="path7730"
           inkscape:connector-curvature="0" />
        <path
           style="opacity:1;fill:#16a816;fill-opacity:1;stroke:none;stroke-width:4.37564325;stroke-linecap:round;stroke-linejoin:round;stroke-miterlimit:4;stroke-dasharray:none;stroke-opacity:1;paint-order:markers stroke fill"
           d="m 296.27134,-327.00856 v 36.93258 h 4.96996 v -13.77043 l 3.92904,3.87356 10.16755,9.89687 h 7.22386 l -10.38821,-10.112 c 1.81996,-0.4165 3.60267,-1.11578 5.30722,-2.30108 3.42425,-2.42405 5.16843,-6.12305 5.16843,-10.81847 0,-5.54256 -2.43609,-9.66218 -7.11978,-11.96201 -2.34622,-1.14809 -4.71453,-1.7349 -7.07951,-1.7349 h -8.91708 z m 4.96996,4.945 h 7.21275 c 1.64537,0 3.23914,0.38505 4.81175,1.17135 2.95405,1.47701 4.34681,3.87212 4.34681,7.58055 0,3.70863 -1.39276,6.10067 -4.34681,7.57774 -1.59009,0.78724 -3.18395,1.17136 -4.81175,1.17136 h -7.21275 z"
           id="path7720"
           inkscape:connector-curvature="0" />
        <path
           style="opacity:1;fill:#16a816;fill-opacity:1;stroke:none;stroke-width:4.37564325;stroke-linecap:round;stroke-linejoin:round;stroke-miterlimit:4;stroke-dasharray:none;stroke-opacity:1;paint-order:markers stroke fill"
           d="m 353.5939,-327.00856 -23.3337,23.25969 13.84128,13.84126 h 7.00259 l -13.84128,-13.83983 23.36268,-23.26112 z m -29.49073,0.16818 v 36.93271 h 4.96942 v -0.74241 -36.1903 z"
           id="path7738"
           inkscape:connector-curvature="0" />
        <path
           style="color:#000000;font-style:normal;font-variant:normal;font-weight:normal;font-stretch:normal;font-size:66.29199982px;line-height:1.25;font-family:'Vonique 92';-inkscape-font-specification:'Vonique 92, Normal';font-variant-ligatures:normal;font-variant-position:normal;font-variant-caps:normal;font-variant-numeric:normal;font-variant-alternates:normal;font-feature-settings:normal;text-indent:0;text-align:start;text-decoration:none;text-decoration-line:none;text-decoration-style:solid;text-decoration-color:#000000;letter-spacing:0px;word-spacing:0px;text-transform:none;writing-mode:lr-tb;direction:ltr;text-orientation:mixed;dominant-baseline:auto;baseline-shift:baseline;text-anchor:start;white-space:normal;shape-padding:0;clip-rule:nonzero;display:inline;overflow:visible;visibility:visible;opacity:1;isolation:auto;mix-blend-mode:normal;color-interpolation:sRGB;color-interpolation-filters:linearRGB;solid-color:#000000;solid-opacity:1;vector-effect:none;fill:#16a816;fill-opacity:1;fill-rule:nonzero;stroke:none;stroke-width:1.48490679;stroke-linecap:butt;stroke-linejoin:miter;stroke-miterlimit:4;stroke-dasharray:none;stroke-dashoffset:0;stroke-opacity:1;color-rendering:auto;image-rendering:auto;shape-rendering:auto;text-rendering:auto;enable-background:accumulate"
           d="m 171.32748,-327.00856 v 4.96951 h 11.68067 v 31.96907 l 4.96943,-0.0331 v -31.93441 h 11.72848 v -0.74241 -4.22841 z"
           id="path7740"
           inkscape:connector-curvature="0" />
        <path
           style="color:#000000;font-style:normal;font-variant:normal;font-weight:normal;font-stretch:normal;font-size:66.29199982px;line-height:1.25;font-family:'Vonique 92';-inkscape-font-specification:'Vonique 92, Normal';font-variant-ligatures:normal;font-variant-position:normal;font-variant-caps:normal;font-variant-numeric:normal;font-variant-alternates:normal;font-feature-settings:normal;text-indent:0;text-align:start;text-decoration:none;text-decoration-line:none;text-decoration-style:solid;text-decoration-color:#000000;letter-spacing:0px;word-spacing:0px;text-transform:none;writing-mode:lr-tb;direction:ltr;text-orientation:mixed;dominant-baseline:auto;baseline-shift:baseline;text-anchor:start;white-space:normal;shape-padding:0;clip-rule:nonzero;display:inline;overflow:visible;visibility:visible;opacity:1;isolation:auto;mix-blend-mode:normal;color-interpolation:sRGB;color-interpolation-filters:linearRGB;solid-color:#000000;solid-opacity:1;vector-effect:none;fill:#16a816;fill-opacity:1;fill-rule:nonzero;stroke:none;stroke-width:1.48490679;stroke-linecap:butt;stroke-linejoin:miter;stroke-miterlimit:4;stroke-dasharray:none;stroke-dashoffset:0;stroke-opacity:1;color-rendering:auto;image-rendering:auto;shape-rendering:auto;text-rendering:auto;enable-background:accumulate"
           d="m 106.14973,-328.71815 v 38.64817 h 4.96945 v -26.71086 l 28.62209,27.99713 v -38.21886 h -0.74241 -4.22709 v 26.73831 z"
           id="path7744"
           inkscape:connector-curvature="0" />
        <g
           transform="matrix(0.77368842,0,0,0.77368842,-945.62195,-1507.161)"
           id="g7750"
           style="fill:#16a816;fill-opacity:1">
          <path
             id="path7746"
             d="m 1404.582,1525.3588 v 47.7358 h 37.2063 v -6.4549 h -30.6576 v -34.7959 h 30.6576 v -0.9597 -5.5253 z"
             style="color:#000000;font-style:normal;font-variant:normal;font-weight:normal;font-stretch:normal;font-size:66.29199982px;line-height:1.25;font-family:'Vonique 92';-inkscape-font-specification:'Vonique 92, Normal';font-variant-ligatures:normal;font-variant-position:normal;font-variant-caps:normal;font-variant-numeric:normal;font-variant-alternates:normal;font-feature-settings:normal;text-indent:0;text-align:start;text-decoration:none;text-decoration-line:none;text-decoration-style:solid;text-decoration-color:#000000;letter-spacing:0px;word-spacing:0px;text-transform:none;writing-mode:lr-tb;direction:ltr;text-orientation:mixed;dominant-baseline:auto;baseline-shift:baseline;text-anchor:start;white-space:normal;shape-padding:0;clip-rule:nonzero;display:inline;overflow:visible;visibility:visible;opacity:1;isolation:auto;mix-blend-mode:normal;color-interpolation:sRGB;color-interpolation-filters:linearRGB;solid-color:#000000;solid-opacity:1;vector-effect:none;fill:#16a816;fill-opacity:1;fill-rule:nonzero;stroke:none;stroke-width:1.91925693;stroke-linecap:butt;stroke-linejoin:miter;stroke-miterlimit:4;stroke-dasharray:none;stroke-dashoffset:0;stroke-opacity:1;color-rendering:auto;image-rendering:auto;shape-rendering:auto;text-rendering:auto;enable-background:accumulate"
             inkscape:connector-curvature="0" />
          <rect
             y="1547.2306"
             x="1410.1703"
             height="6.4242682"
             width="31.504309"
             id="rect7748"
             style="opacity:1;fill:#16a816;fill-opacity:1;stroke:none;stroke-width:2.06776571;stroke-linecap:round;stroke-linejoin:round;stroke-miterlimit:4;stroke-dasharray:none;stroke-opacity:1;paint-order:markers stroke fill" />
        </g>
        <path
           inkscape:connector-curvature="0"
           style="color:#000000;font-style:normal;font-variant:normal;font-weight:normal;font-stretch:normal;font-size:66.29199982px;line-height:1.25;font-family:'Vonique 92';-inkscape-font-specification:'Vonique 92, Normal';font-variant-ligatures:normal;font-variant-position:normal;font-variant-caps:normal;font-variant-numeric:normal;font-variant-alternates:normal;font-feature-settings:normal;text-indent:0;text-align:start;text-decoration:none;text-decoration-line:none;text-decoration-style:solid;text-decoration-color:#000000;letter-spacing:0px;word-spacing:0px;text-transform:none;writing-mode:lr-tb;direction:ltr;text-orientation:mixed;dominant-baseline:auto;baseline-shift:baseline;text-anchor:start;white-space:normal;shape-padding:0;clip-rule:nonzero;display:inline;overflow:visible;visibility:visible;opacity:1;isolation:auto;mix-blend-mode:normal;color-interpolation:sRGB;color-interpolation-filters:linearRGB;solid-color:#000000;solid-opacity:1;vector-effect:none;fill:#16a816;fill-opacity:1;fill-rule:nonzero;stroke:none;stroke-width:5.7489152;stroke-linecap:butt;stroke-linejoin:miter;stroke-miterlimit:4;stroke-dasharray:none;stroke-dashoffset:0;stroke-opacity:1;color-rendering:auto;image-rendering:auto;shape-rendering:auto;text-rendering:auto;enable-background:accumulate"
           d="m 835.64844,-1235.9375 64.57226,122.9395 v 0.1093 l 11.45899,21.4219 10.52148,-20.0644 65.22461,-124.3106 0.0508,-0.096 h -21.57422 l -54.26172,102.7969 -54.77929,-102.7969 z"
           transform="scale(0.26458334)"
           id="path7994" />
        <path
           inkscape:connector-curvature="0"
           style="color:#000000;font-style:normal;font-variant:normal;font-weight:normal;font-stretch:normal;font-size:66.29199982px;line-height:1.25;font-family:'Vonique 92';-inkscape-font-specification:'Vonique 92, Normal';font-variant-ligatures:normal;font-variant-position:normal;font-variant-caps:normal;font-variant-numeric:normal;font-variant-alternates:normal;font-feature-settings:normal;text-indent:0;text-align:start;text-decoration:none;text-decoration-line:none;text-decoration-style:solid;text-decoration-color:#000000;letter-spacing:0px;word-spacing:0px;text-transform:none;writing-mode:lr-tb;direction:ltr;text-orientation:mixed;dominant-baseline:auto;baseline-shift:baseline;text-anchor:start;white-space:normal;shape-padding:0;clip-rule:nonzero;display:inline;overflow:visible;visibility:visible;opacity:1;isolation:auto;mix-blend-mode:normal;color-interpolation:sRGB;color-interpolation-filters:linearRGB;solid-color:#000000;solid-opacity:1;vector-effect:none;fill:#16a816;fill-opacity:1;fill-rule:nonzero;stroke:none;stroke-width:5.7489152;stroke-linecap:butt;stroke-linejoin:miter;stroke-miterlimit:4;stroke-dasharray:none;stroke-dashoffset:0;stroke-opacity:1;color-rendering:auto;image-rendering:auto;shape-rendering:auto;text-rendering:auto;enable-background:accumulate"
           d="m 762.37891,-1235.9375 64.57421,122.9395 v 0.1093 l 11.45704,21.4219 10.52148,-20.0644 65.22656,-124.3106 0.0508,-0.096 h -21.57617 l -54.26172,102.7969 -54.77929,-102.7969 z"
           transform="scale(0.26458334)"
           id="path7726" />
      </g>
    </g>
  </g>
</svg>
