<?xml version="1.0" encoding="UTF-8" standalone="no"?>
<!-- Created with Inkscape (http://www.inkscape.org/) -->

<svg
   xmlns:dc="http://purl.org/dc/elements/1.1/"
   xmlns:cc="http://creativecommons.org/ns#"
   xmlns:rdf="http://www.w3.org/1999/02/22-rdf-syntax-ns#"
   xmlns:svg="http://www.w3.org/2000/svg"
   xmlns="http://www.w3.org/2000/svg"
   xmlns:sodipodi="http://sodipodi.sourceforge.net/DTD/sodipodi-0.dtd"
   xmlns:inkscape="http://www.inkscape.org/namespaces/inkscape"
   width="200"
   height="177.84"
   viewBox="0 0 52.916665 47.0535"
   version="1.1"
   id="svg8"
   inkscape:version="0.92.2 (5c3e80d, 2017-08-06)"
   sodipodi:docname="IconMail.svg">
  <defs
     id="defs2" />
  <sodipodi:namedview
     id="base"
     pagecolor="#ffffff"
     bordercolor="#666666"
     borderopacity="1.0"
     inkscape:pageopacity="0.0"
     inkscape:pageshadow="2"
     inkscape:zoom="0.35"
     inkscape:cx="-177.61412"
     inkscape:cy="156.59775"
     inkscape:document-units="mm"
     inkscape:current-layer="layer1"
     showgrid="false"
     units="px"
     inkscape:showpageshadow="false"
     inkscape:window-width="1920"
     inkscape:window-height="1018"
     inkscape:window-x="-8"
     inkscape:window-y="-8"
     inkscape:window-maximized="1" />
  <metadata
     id="metadata5">
    <rdf:RDF>
      <cc:Work
         rdf:about="">
        <dc:format>image/svg+xml</dc:format>
        <dc:type
           rdf:resource="http://purl.org/dc/dcmitype/StillImage" />
        <dc:title></dc:title>
      </cc:Work>
    </rdf:RDF>
  </metadata>
  <g
     inkscape:label="Livello 1"
     inkscape:groupmode="layer"
     id="layer1"
     transform="translate(0,-249.94649)">
    <path
       style="opacity:1;fill:#ffffff;fill-opacity:1;stroke:none;stroke-width:0.12352426;stroke-linecap:round;stroke-linejoin:round;stroke-miterlimit:4;stroke-dasharray:none;stroke-dashoffset:0;stroke-opacity:1;paint-order:markers stroke fill"
       d="M 26.465445,249.94624 0.32993333,266.23627 H 52.600505 Z M 0.07674133,266.47037 c -0.0462,0.26474 -0.0769999967,0.52794 -0.0769999967,0.80653 v 24.99237 c 0,2.61368 2.1163709667,4.73097 4.7305059667,4.73097 H 48.186415 c 2.61368,0 4.73051,-2.11729 4.73051,-4.73097 V 267.2769 c 0,-0.27705 0,-0.54179 -0.0616,-0.80653 l -24.9736,15.56877 c -0.0462,0 -0.0462,0.0462 -0.0924,0.0462 -0.0462,0 -0.0616,0.0616 -0.10774,0.0616 -0.17085,0.0923 -0.35401,0.15854 -0.54333,0.20779 h -0.0616 c -0.20779,0.0462 -0.4125,0.077 -0.61874,0.077 -0.20779,0 -0.41251,-0.0462 -0.61876,-0.077 h -0.0616 c -0.18316,-0.0462 -0.36632,-0.10774 -0.54333,-0.20779 -0.0462,0 -0.0616,-0.0616 -0.10774,-0.0616 -0.0462,0 -0.0462,-0.0462 -0.0923,-0.0462 z"
       id="path18719"
       inkscape:connector-curvature="0" />
  </g>
</svg>
